<!DOCTYPE svg PUBLIC "-//W3C//DTD SVG 1.1//EN" "http://www.w3.org/Graphics/SVG/1.1/DTD/svg11.dtd">

<!-- Uploaded to: SVG Repo, www.svgrepo.com, Transformed by: SVG Repo Mixer Tools -->
<svg width="1em" height="1em" viewBox="0 0 24 24" xmlns="http://www.w3.org/2000/svg" id="right-sign" class="icon glyph" fill="#000000">

<g id="SVGRepo_bgCarrier" stroke-width="0"/>

<g id="SVGRepo_tracerCarrier" stroke-linecap="round" stroke-linejoin="round"/>

<g id="SVGRepo_iconCarrier">

<path d="M19.91,11.62s0-.07,0-.11l-5-9A1,1,0,0,0,14,2H5a1,1,0,0,0-.86.49,1,1,0,0,0,0,1L8.86,12,4.13,20.51a1,1,0,0,0,0,1A1,1,0,0,0,5,22h9a1,1,0,0,0,.87-.51l5-9s0-.07,0-.11a1.39,1.39,0,0,0,.06-.19.91.91,0,0,0,0-.38A1.39,1.39,0,0,0,19.91,11.62Z" style="fill:#d6d6d6"/>

</g>

</svg>
